<svg width="140" height="80" viewBox="0 0 140 80" preserveAspectRatio="xMidYMid meet" xmlns="http://www.w3.org/2000/svg">
<path fill="#0C98D5" d="M139.83,13c-0.01-0.58-0.12-1.14-0.33-1.68c-0.63-1.74-2.06-3.07-3.85-3.56c-8.29-2.48-16.57-4.97-24.85-7.47
	c-1.24-0.39-2.56-0.39-3.8,0c-3.73,1.14-7.47,2.25-11.21,3.38C82.84,7.6,69.88,11.54,56.92,15.48c-2.51,0.61-4.26,2.89-4.2,5.48
	c-0.05,1-0.11,2-0.18,3.21l-2-0.6c-3.73-1.14-7.45-2.33-11.2-3.41c-1.99-0.68-4.2-0.13-5.64,1.41c-1.63,1.63-3.3,3.23-4.87,4.92
	c-0.58,0.61-1.03,1.33-1.33,2.11c-0.62,1.67-0.39,3.53,0.62,5c2.26,3.67,4.51,7.33,6.74,11c0.25,0.4,0.47,0.81,0.87,1.51l-2.7-0.77
	c-1.41-0.44-2.91-0.44-4.32,0C20.47,47.83,12.23,50.32,4,52.8c-2.39,0.67-4.04,2.87-4,5.35c0,2.26,0.09,4.53,0,6.79
	c-0.01,2.61,1.71,4.91,4.22,5.64c8.29,2.47,16.57,5,24.85,7.45c1.16,0.35,2.39,0.35,3.55,0c8.41-2.53,16.82-5.07,25.22-7.62
	c2.2-0.63,3.78-2.54,4-4.82c0.05-0.28,0.1-0.57,0.17-0.94c1.66,0.53,3.22,1,4.78,1.52c2.07,0.72,4.37,0.17,5.89-1.41
	c1-0.91,1.94-1.82,2.84-2.8c0.45-0.64,1.3-0.86,2-0.52c1.16,0.44,2.39,0.69,3.56,1.08c1.73,0.57,3.61,0.57,5.34,0
	c13-4,26-7.83,39-11.74c3.57-1.08,7.14-2.13,10.67-3.32c2.13-0.6,3.62-2.52,3.69-4.73c0.06-0.79,0.11-1.59,0.11-2.39
	C139.87,31.22,139.85,22.1,139.83,13z M37.51,25.95c0.29-0.22,0.93-0.08,1.36,0c3.83,1.15,7.64,2.34,11.45,3.52l7.3,2.27
	c-0.05,0.15-0.12,0.29-0.21,0.42c-1.89,2.13-1.9,2.13-4.6,1.29l-16-5l-1.46-0.48C36.02,27.25,36.74,26.57,37.51,25.95z M27.92,71.61
	L5.75,64.99v-3.75l22.17,6.67V71.61z M31.99,62.45c-0.62,0.23-1.3,0.27-1.94,0.1c-5.93-1.81-11.88-3.59-17.81-5.39
	c-0.32-0.1-0.63-0.24-1.17-0.46c0.6-0.23,0.95-0.38,1.31-0.49c5.77-1.72,11.55-3.43,17.32-5.18c0.8-0.26,1.65-0.26,2.45,0
	c5.72,1.75,11.46,3.45,17.19,5.17c0.37,0.11,0.72,0.26,1.09,0.39c-0.01,0.09-0.01,0.19,0,0.28c-2.37,0.72-4.73,1.46-7.1,2.17
	L31.99,62.45z M33.87,71.61V67.9l22-6.63c0.07,0.28,0.12,0.56,0.15,0.85c0,0.92,0,1.85,0,2.86L33.87,71.61z M62.02,58.48
	c-0.05-0.23-0.12-0.43-0.15-0.64c-0.12-2.37-1.72-4.41-4-5.1c-3.46-1.1-6.91-2.28-10.43-3.15c-2.17-0.45-4.01-1.86-5-3.84
	c-1.92-3.45-4.11-6.74-6.18-10.1l-0.83-1.41c0.54,0.12,0.84,0.15,1.13,0.24l16.64,5.15c0.61,0.13,1.13,0.52,1.43,1.06
	c3.12,5.87,6.27,11.73,9.4,17.6c0.14,0.3,0.27,0.62,0.37,0.94L62.02,58.48z M70.62,58.38L59.7,38.04l2.63-2.56l11,20.41L70.62,58.38
	z M80.75,56.3l-1.23-0.34c-0.63-1.42-1.1-2.71-1.74-3.9c-3.86-7.18-7.75-14.35-11.59-21.58c-0.8-1.61-2.23-2.81-3.95-3.32
	c-1.23-0.37-2.45-0.78-3.74-1.2v-2l22.25,6.63V56.3z M84.66,25.12c-0.59,0.16-1.21,0.16-1.8,0c-6-1.75-12-3.56-18-5.35
	c-0.25-0.08-0.5-0.17-0.74-0.28v-0.24c0.4-0.14,0.8-0.3,1.2-0.43c14-4.22,28-8.45,42-12.68c1.01-0.32,2.09-0.32,3.1,0
	c5.51,1.68,11.05,3.3,16.57,4.94c0.54,0.13,1.05,0.37,1.49,0.7c-0.47,0.17-0.94,0.36-1.42,0.51l-33.12,10
	c-3.02,1-6.17,1.96-9.28,2.86L84.66,25.12z M134,42.12c-15.72,4.74-31.44,9.49-47.31,14.23V30.58L134,16.33V42.12z"/>
</svg>
