<svg width="200" height="53" viewBox="0 0 200 53" preserveAspectRatio="xMidYMid meet" xmlns="http://www.w3.org/2000/svg">
	<path fill="#00A6CA" d="M30.4,35.8c-0.5-0.4-1.1-0.7-1.8-0.9c-0.7-0.2-1.4-0.3-2-0.3c-0.5,0-1,0.1-1.5,0.2s-1,0.3-1.4,0.5s-0.8,0.5-1.2,0.9s-0.6,0.8-0.8,1.2c0-0.7-0.2-1.2-0.6-1.6c-0.3-0.4-0.8-0.7-1.3-0.9c-0.5-0.2-1.1-0.3-1.7-0.3c-0.6,0-1.2,0.1-1.9,0.2v2.6c0.4,0,0.8,0,1,0.1c0.3,0.1,0.4,0.2,0.5,0.4c0.1,0.2,0.2,0.4,0.2,0.7c0,0.3,0,0.6,0,1v12.1h3.8V42c0-0.7,0.1-1.3,0.4-1.8c0.2-0.5,0.5-0.9,0.9-1.2c0.4-0.3,0.9-0.6,1.4-0.7S25.5,38,26,38c1,0,1.9,0.2,2.7,0.6l0,0L30.4,35.8z"/>
	<path fill="#00A6CA" d="M47.1,49.1c-0.3-0.1-0.4-0.3-0.5-0.5s-0.2-0.5-0.2-0.8s0-0.6,0-1V36.2c-1.1-0.5-2.2-0.9-3.4-1.1c-1.1-0.3-2.3-0.4-3.5-0.4c-1.4,0-2.6,0.2-3.8,0.6c-1.1,0.4-2.1,1-3,1.8s-1.5,1.7-2,2.9c-0.5,1.1-0.8,2.4-0.8,3.8c0,1.2,0.1,2.3,0.5,3.3c0.3,1,0.8,1.9,1.4,2.7c0.6,0.8,1.4,1.4,2.4,1.8s2.1,0.6,3.3,0.6s2.4-0.3,3.5-1c1.1-0.6,1.9-1.5,2.3-2.7c0,0.9,0.1,1.6,0.4,2.1s0.6,0.9,1.1,1.1c0.5,0.3,1,0.4,1.6,0.4s1.2,0,1.8-0.2v-2.8C47.7,49.2,47.3,49.2,47.1,49.1z M42.7,43.3c0,1.6-0.4,2.8-1.2,3.8c-0.7,1-1.8,1.5-3.2,1.5c-1.6,0-2.7-0.5-3.5-1.4s-1.1-2.1-1.1-3.7c0-0.9,0.2-1.7,0.5-2.5c0.3-0.7,0.6-1.4,1.1-1.9s1-0.9,1.7-1.2c0.6-0.3,1.4-0.4,2.2-0.4c0.5,0,1.1,0,1.7,0.1c0.6,0.1,1.2,0.3,1.8,0.5V43.3L42.7,43.3z"/>
	<path fill="#00A6CA" d="M65.2,36.7c-0.5-0.6-1.2-1.1-2.1-1.5c-0.8-0.4-1.8-0.6-3-0.6c-0.6,0-1.1,0-1.7,0.1s-1.1,0.3-1.6,0.5s-1,0.5-1.4,0.9s-0.8,0.8-1,1.4c0-0.8-0.2-1.4-0.5-1.8s-0.7-0.7-1.2-0.9c-0.5-0.1-1.1-0.2-1.7-0.2s-1.3,0.1-1.9,0.2v2.6c0.4,0,0.8,0,1,0.1c0.3,0.1,0.4,0.2,0.5,0.4c0.1,0.2,0.2,0.4,0.2,0.7c0,0.3,0,0.7,0,1.2v11.9h3.8v-9.5c0-0.7,0.1-1.3,0.3-1.8c0.2-0.6,0.5-1,0.9-1.4s0.8-0.7,1.3-0.9c0.5-0.2,1.1-0.3,1.7-0.3c1.1,0,2.1,0.4,2.8,1.1c0.8,0.7,1.1,1.8,1.1,3.1v9.8h3.8V42c0-1-0.1-2-0.4-2.9C66.2,38.1,65.8,37.4,65.2,36.7z"/>
	<path fill="#00A6CA" d="M82.2,43c-0.6-0.4-1.4-0.6-2.2-0.8c-0.8-0.2-1.7-0.3-2.6-0.4c-1.3-0.2-2.3-0.4-3-0.6c-0.7-0.3-1-0.7-1-1.4c0-0.4,0.1-0.7,0.3-1s0.4-0.5,0.8-0.7c0.3-0.2,0.7-0.4,1.1-0.5s0.9-0.2,1.3-0.2s0.9,0,1.3,0.1c0.5,0.1,0.9,0.2,1.2,0.4c0.4,0.2,0.6,0.4,0.9,0.7c0.2,0.3,0.4,0.6,0.4,1H84c0-0.8-0.1-1.6-0.5-2.2s-0.9-1.1-1.5-1.6c-0.7-0.4-1.4-0.8-2.3-1s-1.8-0.3-2.8-0.3c-0.9,0-1.8,0.1-2.7,0.3s-1.6,0.5-2.3,1c-0.7,0.4-1.2,1-1.6,1.6s-0.6,1.4-0.6,2.3c0,1,0.3,1.7,0.7,2.3c0.5,0.6,1,1,1.7,1.3s1.5,0.5,2.4,0.7c0.9,0.1,1.7,0.3,2.6,0.4c1.1,0.1,2,0.4,2.7,0.7c0.7,0.3,1,0.8,1,1.6c0,0.5-0.1,0.9-0.4,1.3c-0.3,0.3-0.6,0.6-0.9,0.8c-0.4,0.2-0.8,0.3-1.3,0.4s-0.9,0.1-1.4,0.1s-0.9-0.1-1.4-0.1c-0.4-0.1-0.8-0.3-1.2-0.5c-0.4-0.2-0.6-0.5-0.9-0.8c-0.2-0.3-0.4-0.7-0.4-1.1h-3.7c0.1,1,0.3,1.9,0.8,2.6s1,1.2,1.8,1.6c0.7,0.4,1.5,0.7,2.4,0.9c0.9,0.2,1.8,0.3,2.7,0.3s1.8-0.1,2.7-0.3s1.7-0.5,2.3-1s1.2-1,1.6-1.6c0.4-0.7,0.6-1.5,0.6-2.4c0-1-0.2-1.8-0.6-2.4C83.3,43.8,82.8,43.4,82.2,43z"/>
	<path fill="#00A6CA" d="M124.6,36.7c-0.5-0.6-1.2-1.1-2.1-1.5c-0.8-0.4-1.8-0.6-3-0.6c-0.6,0-1.1,0-1.7,0.1s-1.1,0.3-1.6,0.5s-1,0.5-1.4,0.9s-0.8,0.8-1,1.4c0-0.8-0.2-1.4-0.5-1.8s-0.7-0.7-1.2-0.9c-0.5-0.1-1.1-0.2-1.7-0.2s-1.3,0.1-1.8,0.2v2.6c0.4,0,0.8,0,1,0.1c0.3,0.1,0.4,0.2,0.5,0.4c0.1,0.2,0.2,0.4,0.2,0.7c0,0.3,0,0.7,0,1.2v11.9h3.8v-9.5c0-0.7,0.1-1.3,0.3-1.8c0.2-0.6,0.5-1,0.9-1.4s0.8-0.7,1.3-0.9c0.5-0.2,1.1-0.3,1.7-0.3c1.1,0,2.1,0.4,2.8,1.1c0.8,0.7,1.1,1.8,1.1,3.1v9.8h3.8V42c0-1-0.1-2-0.4-2.9C125.6,38.1,125.2,37.4,124.6,36.7z"/>
	<path fill="#00A6CA" d="M131.3,27.6c-0.6,0-1.1,0.2-1.6,0.6s-0.7,0.9-0.7,1.7c0,0.8,0.3,1.3,0.7,1.7c0.5,0.4,1,0.6,1.6,0.5c0.6,0,1.1-0.2,1.5-0.6c0.5-0.4,0.7-0.9,0.7-1.7c0-0.8-0.2-1.3-0.7-1.7C132.4,27.7,131.9,27.6,131.3,27.6z"/>
	<rect fill="#00A6CA" x="129.4" y="35" width="3.8" height="16.8"/>
	<path fill="#00A6CA" d="M150.9,36.8c-0.8-0.7-1.8-1.2-2.9-1.6s-2.2-0.5-3.4-0.5c-1.1,0-2.2,0.2-3.2,0.5c-1,0.4-2,0.9-2.8,1.6s-1.5,1.6-2,2.7s-0.8,2.3-0.8,3.8s0.3,2.8,0.8,3.8c0.5,1.1,1.2,2,2,2.8c0.8,0.7,1.8,1.3,2.8,1.6c1.1,0.4,2.1,0.5,3.3,0.5c1.1,0,2.2-0.2,3.3-0.5s2-0.9,2.8-1.6s1.5-1.6,2-2.8c0.5-1.1,0.8-2.4,0.8-3.8c0-1.5-0.3-2.7-0.8-3.8C152.4,38.4,151.7,37.5,150.9,36.8z M149.4,45.7c-0.3,0.7-0.7,1.2-1.1,1.7s-1,0.8-1.6,1s-1.2,0.4-1.8,0.4c-0.6,0-1.3-0.1-1.9-0.3c-0.6-0.2-1.2-0.6-1.6-1c-0.5-0.5-0.9-1-1.2-1.7c-0.3-0.7-0.4-1.5-0.4-2.4s0.1-1.6,0.4-2.3c0.3-0.7,0.6-1.2,1.1-1.6s1-0.8,1.6-1s1.2-0.3,1.8-0.4c0.6,0,1.3,0.1,1.9,0.3s1.2,0.5,1.7,1c0.5,0.4,0.9,1,1.2,1.7c0.3,0.7,0.5,1.5,0.5,2.4C149.9,44.2,149.7,45,149.4,45.7z"/>
	<path fill="#00A6CA" d="M0,31v-3.6h18.1V31H11v20.8H7V31H0z"/>
	<path fill="#00A6CA" d="M87.2,43.6V27.4h4v16.1c0,3.2,2.4,5,5.5,5s5.4-1.8,5.4-5V27.4h4v16.2c0,5.4-4.3,8.5-9.4,8.5C91.5,52.1,87.2,49,87.2,43.6z"/>
	<path fill="#00A6CA" d="M172.5,47.8v-2.7l0,0v-3.3c0-1-0.1-2-0.4-2.9s-0.7-1.6-1.2-2.3c-0.5-0.6-1.2-1.1-2.1-1.5c-0.8-0.4-1.8-0.6-3-0.6c-0.6,0-1.1,0-1.7,0.1s-1.1,0.3-1.6,0.5s-1,0.5-1.4,0.9s-0.8,0.8-1,1.4c0-0.8-0.2-1.4-0.5-1.8s-0.7-0.7-1.2-0.9c-0.5-0.1-1.1-0.2-1.7-0.2s-1.3,0.1-1.8,0.2v2.6c0.4,0,0.8,0,1,0.1c0.3,0.1,0.4,0.2,0.5,0.4c0.1,0.2,0.2,0.4,0.2,0.7c0,0.3,0,0.7,0,1.2v11.9h3.8v-9.5c0-0.7,0.1-1.3,0.3-1.8c0.2-0.6,0.5-1,0.9-1.4s0.8-0.7,1.3-0.9c0.5-0.2,1.1-0.3,1.7-0.3c1.1,0,2.1,0.4,2.8,1.1c0.8,0.7,1.1,1.8,1.1,3.1v5.7l0,0V48c0,4.1,2.5,4.5,5.8,3.9v-2.4C172.8,49.6,172.5,49.1,172.5,47.8z"/>
	<path fill="#00A6CA" d="M182.4,0c-6.5,0-12.2,3.5-15.2,8.8c-1.1,2.1-1.3,3.9-0.4,5.4c1,1.8,3.3,2,4.5,2h2.2l-0.8,2.5c-0.5,1.5-0.3,3.2,0.5,4.3c0.8,1.1,2,1.7,3.5,1.7c1,0,2.1-0.2,3.1-0.6c-0.3-0.4-0.5-0.8-0.7-1.3c-0.1-0.4-0.3-0.8-0.3-1.3c-0.6,0.3-1.3,0.4-2,0.4c-0.4,0-1-0.1-1.3-0.6c-0.3-0.4-0.4-1-0.2-1.7l1.1-3.4h3.5l0.9-2.9h-3.4l1.5-4.7h-3l-1.5,4.7h-3.2c-1,0-1.6-0.3-1.9-0.8c-0.3-0.6,0-1.8,0.8-3.2V9.2c2.7-3.9,7.1-6.5,12.2-6.5c8.1,0,14.7,6.6,14.7,14.7s-6.6,14.7-14.7,14.7c-7.2,0-13.2-5.2-14.5-12l-2.8,0.6c1.6,8.1,8.7,14.3,17.3,14.3c9.7,0,17.6-7.9,17.6-17.6C200,7.9,192.1,0,182.4,0z"/>
    <path fill="#00A6CA" d="M193.6,22.4c-0.7,0-1.6-0.1-2.2-0.5c-0.2-0.2-0.5-0.4-0.6-0.9l0,0c0-0.2,0-0.5,0.1-0.8l2.2-6.7l0,0h-3l0,0l-1.9,5.8l0,0c-0.5,1.5-2.1,2.7-3.5,2.7c-0.4,0-0.9-0.1-1.1-0.5c-0.2-0.3-0.4-0.7-0.1-1.4l2.2-6.7h-3l-1.9,5.8c-0.5,1.4-0.3,2.9,0.5,4c0.8,1,1.9,1.6,3.4,1.6c1.4,0,2.9-0.6,4.1-1.6c0.4,0.6,0.9,1,1.6,1.3c1,0.3,1.6,0.3,2.3,0.3c0.3,0,0.7-0.1,0.8-0.1c0.1-0.1,0.1-0.2,0.2-0.3c0.1-0.2,0.2-0.4,0.3-0.6c0.1-0.2,0.2-0.4,0.3-0.6c0.1-0.2,0.2-0.4,0.3-0.6c0.1-0.1,0.1-0.3,0.2-0.4C194.5,22.4,194.1,22.4,193.6,22.4z"/>
	<path fill="#00A6CA" d="M176.4,49.8c0-3,4.5-3,4.5,0S176.4,52.8,176.4,49.8z M180.5,49.8c0-2.6-3.7-2.6-3.7,0C176.8,52.4,180.5,52.4,180.5,49.8z M179.6,50.8L179.6,50.8l-0.4,0.1l-0.6-0.8h-0.5v0.8h-0.3v-2.2h0.9c0.4,0,0.8,0.3,0.8,0.7c0,0.3-0.2,0.6-0.5,0.6L179.6,50.8z M178.2,49.8h0.5c0.3,0,0.5-0.2,0.5-0.4c0-0.3-0.2-0.4-0.5-0.4h-0.5V49.8z"/>
</svg>
