<svg width="554" height="107" viewBox="0 0 554 107" preserveAspectRatio="xMidYMid meet" xmlns="http://www.w3.org/2000/svg">
	<path fill="#1E1E1E" d="M95.26,106.55h-2.28V89.82h5c4,0,6.15,1.92,6.15,4.89c0,2.52-1.47,4.07-3.77,4.82l4.52,7h-2.7l-4.07-6.64l-2.86,0.19L95.26,106.55z M98.01,98.01c2.2-0.08,3.86-1.13,3.86-3.19s-1.61-2.92-4.15-2.92h-2.46v6.19L98.01,98.01z"/>
	<path fill="#1E1E1E" d="M112.93,106.55V89.82h10.61v2.11h-8.33v5.17h6.93v2.11h-6.93v5.27h8.33v2.12L112.93,106.55z"/>
	<path fill="#1E1E1E" d="M143.73,89.82h2.22v16.89h-2.46l-9-13.66v13.5h-2.22V89.82h2.52l8.91,13.49L143.73,89.82z"/>
	<path fill="#1E1E1E" d="M162.04,91.96v14.59h-2.25V91.96h-5.85v-2.14h14v2.14H162.04z"/>
	<path fill="#1E1E1E" d="M199.28,101.81c0,2.84-1.9,4.74-6.21,4.74h-5.7V89.82h5.54c4,0,5.84,1.81,5.84,4.44c-0.02,1.73-1.19,3.24-2.87,3.67C198.11,98.48,199.28,99.93,199.28,101.81z M193.1,91.9h-3.45v5.25h3.1c2.41,0,3.72-1.07,3.72-2.7S195.3,91.9,193.1,91.9z M192.94,99.21h-3.29v5.27h3.64c2.49,0,3.72-0.88,3.72-2.62C197.04,99.91,195.3,99.21,192.94,99.21z"/>
	<path fill="#1E1E1E" d="M207.89,106.55V89.82h10.6v2.11h-8.33v5.17h6.94v2.11h-6.94v5.27h8.33v2.12L207.89,106.55z"/>
	<path fill="#1E1E1E" d="M233.76,91.96v14.59h-2.25V91.96h-5.86v-2.14h14v2.14H233.76z"/>
	<path fill="#1E1E1E" d="M254.65,91.96v14.59h-2.25V91.96h-5.86v-2.14h14v2.14H254.65z"/>
	<path fill="#1E1E1E" d="M268.5,106.55V89.82h10.6v2.11h-8.32v5.17h6.93v2.11h-6.93v5.27h8.32v2.12L268.5,106.55z"/>
	<path fill="#1E1E1E" d="M290.15,106.55h-2.28V89.82h5c4,0,6.15,1.92,6.15,4.89c0,2.52-1.47,4.07-3.77,4.82l4.52,7h-2.73l-4-6.62l-2.86,0.19L290.15,106.55z M292.9,98.01c2.2-0.08,3.86-1.13,3.86-3.19s-1.61-2.92-4.15-2.92h-2.46v6.19L292.9,98.01z"/>
	<path fill="#1E1E1E" d="M308.9,106.95c-0.97,0.01-1.76-0.77-1.77-1.74c0.02-0.95,0.8-1.71,1.75-1.69c0.01,0,0.01,0,0.02,0c0.92-0.01,1.67,0.72,1.68,1.64c0,0.02,0,0.03,0,0.05c0.02,0.94-0.72,1.72-1.66,1.74C308.91,106.95,308.9,106.95,308.9,106.95zM307.56,89.09h2.65l-0.67,12.26h-1.28L307.56,89.09z"/>
	<path fill="#1E1E1E" d="M47.95,62.64c-2.27-1.7-4.42-3.57-6.61-5.38c-3.44-2.81-6.47-6.09-9-9.75c-0.24-0.34-0.46-0.68-0.72-1.09c0.44-0.16,0.78-0.28,1.12-0.43c1.45-0.64,2.94-1.2,4.33-2c4.75-2.43,8.36-6.62,10.05-11.68c1.26-3.92,1.45-8.1,0.57-12.12c-0.81-4.93-4.03-9.12-8.58-11.18c-4.58-2.23-9.76-2.93-14.77-2c-4.91,0.82-8.81,3.45-12.13,7l-1.13,1.26c-0.1-1-0.15-1.74-0.24-2.48s-0.23-1.58-0.4-2.35c-0.18-1.35-1.31-2.37-2.67-2.4c-1.24-0.1-2.49-0.03-3.72,0.21c-2.61,0.51-4.36,2.96-4,5.59c0.13,1.37,0.31,2.74,0.51,4.1c1.13,6.97,1.77,14.01,1.93,21.07C2.6,47.4,2.6,55.8,2.65,64.2c-0.03,0.67,0,1.34,0.07,2c0.1,0.79,0.3,1.56,0.57,2.3c0.45,1.25,1.55,2.16,2.86,2.36c1.86,0.36,3.78,0.17,5.53-0.55c1.64-0.5,2.61-2.19,2.22-3.86c-0.35-2.77-0.69-5.55-1-8.33c-0.59-6.58-0.71-13.19-0.38-19.78c0.09-3.22,0.49-6.42,1.19-9.56c0.57-2.83,1.7-5.52,3.32-7.92c1.72-2.63,4.47-4.4,7.58-4.88c1.57-0.2,3.16-0.23,4.74-0.1c3.77,0.15,6.99,2.79,7.87,6.46c2.14,7.01-1.81,14.44-8.82,16.58c-0.47,0.14-0.94,0.26-1.42,0.35c-0.69,0.09-1.4,0.09-2.09,0c-1.05-0.17-2.12,0.07-3,0.65c-2.65,1.94-3.32,4.12-2.7,6.73c0.15,0.74,0.4,1.45,0.75,2.12c0.74,1.39,1.58,2.72,2.5,4c4.56,5.95,10.11,11.07,16.4,15.14c1.12,0.74,2.29,1.38,3.5,1.94c2.35,1.22,5.24,0.3,6.46-2.05c0.02-0.04,0.04-0.09,0.06-0.13C49.77,66.08,50.04,64.2,47.95,62.64z"/>
	<path fill="#1E1E1E" d="M399.47,55.3c-1.06-0.04-2.09,0.28-2.94,0.91c-0.86,0.66-1.69,1.36-2.56,2s-1.81,1.35-2.76,2c-1.22,0.75-2.65,1.1-4.08,1c-1.5-0.06-2.15-0.8-2-2.27c0.1-0.91,0.31-1.81,0.62-2.68c0.81-2.19,1.65-4.38,2.58-6.52c0.82-1.94,1.01-4.08,0.56-6.13c-0.34-1.7-1.3-3.21-2.69-4.24c-0.96-0.83-2.21-1.25-3.48-1.17c-1.29,0.11-2.58,0.25-3.86,0.38c-1.83,0.23-3.68,0.19-5.49-0.13c-0.91-0.03-1.61-0.8-1.58-1.7c0-0.03,0-0.06,0.01-0.09c0-0.38,0-0.75,0-1.13c-0.08-2.37-1.2-4.59-3.05-6.08c-2.55-2-7.3-1.87-9,2c-0.33,0.72-0.61,1.47-0.83,2.23c-0.51,1.86-0.47,3.83,0.09,5.68c0.48,1.5,1.43,2.81,2.72,3.72c0.01,0.11,0.01,0.22,0,0.33c-1.04,4.91-2.94,9.61-5.6,13.87c-0.2,0.31-0.47,0.58-0.78,0.78c-1.64,1.16-3.43,2.11-5.31,2.82c-1.95,0.76-4.06,1.05-6.15,0.83c-0.98-0.03-1.92-0.33-2.73-0.88c0.43-0.29,0.79-0.5,1.11-0.76c1.33-0.95,2.59-1.99,3.77-3.13c3.42-3.79,5.21-8.2,4.2-13.35c-0.59-4.06-3.58-7.36-7.56-8.34c-2.76-0.75-5.68-0.73-8.43,0.06c-3.2,0.99-5.92,3.12-7.63,6c-2.14,3.33-3.19,7.25-3,11.2c0,1.2,0.21,2.41,0.32,3.65c-0.81,0.57-1.61,1.16-2.44,1.72c-0.96,0.68-1.97,1.31-3,1.88c-3.71,2-7.38,0.45-8.7-3.52c-0.08-0.24-0.15-0.48-0.21-0.72c-0.46-2.04-0.73-4.11-0.78-6.2c-0.13-1.76,0.69-3.11,1.41-4.48c1.28-0.07,2.55-0.21,3.82-0.41c1.57-0.25,3.1-0.68,4.57-1.27c2.44-0.94,4.15-3.18,4.4-5.79c0.31-1.06-0.3-2.17-1.36-2.48c-0.09-0.03-0.19-0.05-0.28-0.06c-0.8-0.23-1.62-0.37-2.45-0.4c-1.3-0.06-2.59,0-3.89,0c-0.31,0-0.63,0-1,0c0.43-1.46,0.88-2.8,1.24-4.17c1-4,1.95-8.14,1.62-12.36c-0.11-1.58-0.41-3.15-0.88-4.66c-0.69-2.19-2.55-3-4.79-2.45c-1.29,0.38-2.44,1.15-3.28,2.2c-1.61,1.93-2.89,4.11-3.79,6.45c-1.3,3.39-2.33,6.89-3.05,10.45c-0.23,1-0.47,2-0.73,3.1c-0.48-0.05-0.95-0.05-1.43,0c-1.19,0.16-2.36,0.45-3.49,0.88c-0.85,0.41-1.79,0.6-2.73,0.57c-1.5-0.05-3,0-4.59,0c0.37-1.23,0.75-2.38,1.06-3.54c1.22-4.03,1.84-8.21,1.85-12.42c-0.03-1.84-0.36-3.67-1-5.4c-0.6-1.95-2.67-3.03-4.62-2.43c-0.04,0.01-0.08,0.03-0.12,0.04c-1.22,0.34-2.3,1.04-3.12,2c-1.29,1.47-2.35,3.12-3.14,4.91c-1.29,2.77-2.29,5.66-3,8.63c-0.53,2.18-1,4.38-1.58,6.68c-0.42-0.04-0.84-0.04-1.26,0c-1.19,0.2-2.36,0.46-3.52,0.79c-1.13,0.41-1.96,1.38-2.18,2.56c-0.3,1.14-0.16,2.36,0.38,3.41c0.85,1.61,2.28,2.85,4,3.45c0.52,0.23,1.05,0.44,1.41,0.59V55.4c-1.36,0.94-2.59,1.8-3.83,2.64c-0.83,0.57-1.64,1.16-2.51,1.66c-0.57,0.34-1.19,0.6-1.84,0.76c-2.72,0.65-4.66-0.57-5.09-3.33c-0.23-1.66-0.33-3.33-0.28-5c0.07-3,0.3-6,0.43-9c0.07-1.46,0.16-2.93,0.1-4.38c0.01-2.23-1.64-4.13-3.85-4.42c-2.75-0.47-4.48,0.4-5.49,2.78c-0.22,0.45-0.38,0.93-0.47,1.42c-0.27,2-0.55,4-0.71,6.09c-0.17,2.2-0.16,4.42-0.33,6.63c-0.13,1.58-0.35,3.15-0.65,4.71c-0.34,2.01-1.91,3.58-3.91,3.94c-1.22,0.26-2.48,0.36-3.73,0.28c-2.56-0.07-4.76-1.82-5.41-4.29c-0.22-0.8-0.37-1.63-0.43-2.46c-0.33-2.33-0.2-4.71,0.36-7c0.44-1.95,0.69-3.93,0.73-5.93c0.02-0.38-0.01-0.75-0.1-1.12c-0.36-2.08-2.06-3.67-4.16-3.9c-2.05-0.36-3.38,0.29-4.56,2.28c-0.43,0.77-0.8,1.56-1.13,2.37c-0.17,0.38-0.29,0.78-0.45,1.22c-0.39,0.49-0.78,7.42-0.81,9.15c0.08,0.67,0.15,1.25,0.21,1.82c0.37,3.84,1.66,7.54,3.75,10.79c1.86,3.08,4.92,5.26,8.44,6c1.39,0.27,2.81,0.43,4.23,0.47c3.38,0.29,6.72-0.83,9.24-3.1c0.8-0.74,1.56-1.5,2.35-2.26l0.71-0.69c0.88,1.61,2.07,3.03,3.52,4.16c2.34,1.98,5.45,2.77,8.45,2.16c3.16-0.62,6.13-1.99,8.65-4l1.17-0.9c0.14,0.15,0.28,0.31,0.4,0.47c1.66,2.34,4.17,3.94,7,4.46c4.24,0.91,8.65,0.49,12.65-1.19c2.14-0.89,4.11-2.16,5.8-3.75c0.24,0.28,0.44,0.48,0.61,0.71c1.55,2.12,3.82,3.59,6.39,4.13c7,1.46,13.35,0.08,18.79-4.75l0.51-0.55c0.11,0,0.16,0,0.19,0.06c0.27,0.25,0.54,0.52,0.81,0.78c2.61,2.56,5.95,4.27,9.56,4.89c5.81,1,12.62,1.07,18.11-1.06c0.84-0.32,1.8-0.39,2.29-0.62c1.55-0.54,2.93-1.48,4-2.73c1.07-1.34,1.98-2.8,2.7-4.35c2.18-4.52,3.86-9.26,5-14.14c0.09-0.35,0.22-0.69,0.29-0.9l4.67,0.75c0.33,0.05,0.66,0.11,1,0.18c1.95,0.45,2.49,1.27,2.22,3.23c-0.32,1.47-0.87,2.89-1.62,4.19c-1.17,2.27-1.79,4.79-1.8,7.35c0,4.31,2.31,7.3,6.54,8.1c7.79,1.46,14.33-1,19.66-6.76c0.81-0.91,1.37-2.02,1.63-3.21c0.52-2.15-0.8-4.31-2.95-4.83C400.05,55.34,399.76,55.31,399.47,55.3z M299.2,55.42c-1.39,0.93-2.56,1.73-3.74,2.51c-0.86,0.58-1.72,1.17-2.62,1.7c-1.35,0.77-2.93,1.05-4.47,0.79c-1.81-0.25-3.35-1.46-4-3.17c-0.76-1.82-1.21-3.75-1.33-5.72c0-0.62,0-1.26-0.09-1.87c-0.12-1.55,0.26-3.1,1.09-4.41c0.23-0.46,0.57-0.51,1-0.55c1.37-0.13,2.74-0.25,4.1-0.46c2.16-0.25,4.19-1.15,5.83-2.58l4.22,2.15L299.2,55.42z M340.63,49.42c-1.06,3.12-3.38,5.66-6.39,7c-0.67-1.19-1.02-2.53-1-3.9c-0.13-2.23,0.54-4.44,1.89-6.22c0.5-0.66,1.13-1.21,1.86-1.6c1.21-0.77,2.82-0.42,3.59,0.79c0.27,0.43,0.41,0.92,0.41,1.43C341.04,47.77,340.92,48.62,340.63,49.42z"/>
	<path fill="#1E1E1E" d="M220.89,46.12c-2.18-4.48-6.06-7.91-10.77-9.54c0.35-0.34,0.7-0.7,1-1.08c4.78-5.48,6.5-15.68,2.91-22.26c-7.4-13.52-34.3-9.5-43.11,0.31c-3.65,4.06,1.9,10,5.76,6.82c-0.08,8.55-0.09,17.11,0.09,25.67c0.12,6-1.84,17.25,1.39,22.6c4.83,8,25.76,4.89,33.13,1.84c9.25-3.76,13.71-14.32,9.94-23.57C221.12,46.64,221.01,46.38,220.89,46.12z M185.69,14.83c6-2,13.11-2.17,17.38,0.71c6.37,4.31,3.86,13.06-2,16.62c-2.13,1.2-4.49,1.94-6.92,2.17c-2.76,0.35-5.6,0.36-8.13,0.45c-0.15,0.02-0.29,0.04-0.43,0.08C185.58,28.18,185.59,21.48,185.69,14.83L185.69,14.83z M199.69,63.57c-2.35,0.19-14.6,1-13.51-2.87c-0.08-2.1-0.15-4.19-0.21-6.28c-0.1-3.58-0.18-7.16-0.24-10.73h0.35c2.63-0.24,5.78-0.59,9-0.68c5.05-0.15,10.27,0.32,13.89,2.86c13.24,9.33-1.18,17.04-9.31,17.7H199.69z"/>
	<path fill="#1E1E1E" d="M164.95,53.63c-1.53-1.47-3.87-1.68-5.64-0.52l0,0c-1.59,1.05-3,1.91-4.47,2.88c-0.82,0.58-1.67,1.11-2.55,1.6c-3.72,1.93-7.46,0.44-8.69-3.54c-0.43-1.44-0.71-2.91-0.83-4.41c-0.19-2.1-0.49-4.24,0.77-6.2c0.35-0.54,0.6-0.89,1.31-0.9c1.04,0,2.09-0.1,3.11-0.3c1.56-0.28,3.08-0.72,4.55-1.31c2.31-0.93,3.94-3.03,4.26-5.5c0.23-1.77-0.24-2.5-2-2.89c-1.03-0.2-2.07-0.3-3.11-0.3c-1.27-0.05-2.55,0-3.9,0c0.45-1.54,0.92-3,1.29-4.42c1.09-3.73,1.64-7.6,1.64-11.49c-0.02-1.8-0.34-3.58-0.93-5.28c-0.57-1.96-2.62-3.1-4.58-2.53c-0.07,0.02-0.15,0.05-0.22,0.07c-1.26,0.36-2.37,1.09-3.2,2.1c-1.48,1.73-2.69,3.69-3.57,5.79c-1.3,3.12-2.3,6.36-3,9.67c-0.34,1.5-0.7,3-1,4.52c-0.4,0-0.79,0.02-1.19,0.06c-1.11,0.14-2.21,0.37-3.29,0.68c-1.96,0.65-3.08,2.7-2.57,4.7c0.35,1.79,1.5,3.33,3.12,4.17c0.91,0.5,1.87,0.9,2.72,1.3v11.7c-0.89,0.61-1.65,1.11-2.39,1.65c-0.91,0.67-1.8,1.37-2.7,2c-1.03,0.8-2.25,1.31-3.54,1.5c-1.42,0.37-2.87-0.49-3.24-1.92c-0.03-0.14-0.06-0.27-0.07-0.41c-0.06-0.33-0.08-0.67-0.06-1c0.17-1.91,0.29-3.83,0.56-5.73c0.48-2.97,0.67-5.99,0.57-9c0.02-3.72-2.3-7.05-5.8-8.32c-1.76-0.69-3.66-0.93-5.54-0.69c-2.46,0.34-4.78,1.38-6.66,3c-2.49,1.99-4.64,4.35-6.4,7c-0.19,0.28-0.42,0.54-0.79,1c0-0.7-0.08-1.1-0.09-1.51c0-1.46,0-2.92-0.07-4.38c-0.03-0.88-0.13-1.75-0.3-2.61c-0.14-1.02-0.93-1.83-1.94-2c-0.94-0.18-1.9-0.26-2.86-0.24c-1.58,0.05-3.03,0.88-3.87,2.22c-0.93,1.37-1.43,2.98-1.43,4.64c0,1.5,0,3,0,4.51c0,3.47,0,6.93,0,10.24c-1.31,0.94-2.4,1.8-3.56,2.54c-0.14,0.1-0.3,0.18-0.45,0.28c-1.22,0.79-2.48,1.5-3.78,2.14c-2.21,1.12-4.7,1.59-7.17,1.37c-1.03-0.05-2.03-0.34-2.92-0.87c0.4-0.28,0.76-0.49,1.08-0.75c1.31-0.96,2.56-2,3.73-3.13c3.07-3.11,4.69-7.37,4.47-11.73c-0.13-4.7-3.33-8.76-7.87-10c-2.73-0.71-5.6-0.68-8.31,0.08c-1.86,0.51-3.58,1.45-5,2.76c-1.17,1.04-2.18,2.25-3,3.59c-2.57,4.14-3.44,9.11-2.42,13.87c0.68,3.86,2.59,7.41,5.44,10.1c2.34,2.13,5.17,3.64,8.23,4.42c2.98,0.7,6.05,0.87,9.09,0.5c2.88-0.24,5.72-0.89,8.42-1.92c1.56-0.58,3.06-1.3,4.48-2.16c0.19-0.12,0.41-0.2,0.63-0.31c0.26,0.49,0.46,0.9,0.7,1.29c0.53,0.98,1.5,1.63,2.61,1.75c2.44,0.26,5.05-0.41,5.87-3.79c0.37-1.88,0.56-3.8,0.57-5.72c0.03-0.66,0.16-1.31,0.4-1.93c1.4-3.36,3.26-6.51,5.52-9.36c1.09-1.32,2.28-2.55,3.56-3.69c0.59-0.52,1.27-0.93,2-1.2c2-0.76,3.24-0.06,3.74,2c0.09,0.33,0.15,0.66,0.16,1c0,1.34,0,2.68-0.14,4c-0.19,2-0.6,4-0.7,6c-0.13,2.04-0.09,4.09,0.12,6.12c0.26,2.73,1.96,5.12,4.46,6.25c2.55,1.3,5.45,1.76,8.27,1.3c3.66-0.65,7.1-2.22,10-4.55l0.9-0.65l0.52,0.67c1.57,2.09,3.83,3.56,6.38,4.16c5.83,1.37,11.97,0.19,16.88-3.25c1.94-1.37,3.81-2.83,5.6-4.39c1.79-1.72,1.84-4.56,0.12-6.35C164.97,53.66,164.96,53.65,164.95,53.63z M68.04,46.71c-0.93,3.38-3.34,6.15-6.55,7.55c-0.55-0.82-0.87-1.77-0.94-2.76c-0.44-2.63,0.25-5.32,1.9-7.42c0.51-0.66,1.16-1.18,1.91-1.54c1.24-0.69,2.81-0.25,3.5,0.99c0.21,0.37,0.32,0.78,0.32,1.21C68.24,45.4,68.19,46.07,68.04,46.71z"/>
	<path fill="#0C98D5" d="M553.95,13c-0.01-0.58-0.12-1.14-0.33-1.68c-0.63-1.74-2.06-3.07-3.85-3.56c-8.29-2.48-16.57-4.97-24.85-7.47c-1.24-0.39-2.56-0.39-3.8,0c-3.73,1.14-7.47,2.25-11.21,3.38c-12.95,3.93-25.91,7.87-38.87,11.81c-2.51,0.61-4.26,2.89-4.2,5.48c-0.05,1-0.11,2-0.18,3.21l-2-0.6c-3.73-1.14-7.45-2.33-11.2-3.41c-1.99-0.68-4.2-0.13-5.64,1.41c-1.63,1.63-3.3,3.23-4.87,4.92c-0.58,0.61-1.03,1.33-1.33,2.11c-0.62,1.67-0.39,3.53,0.62,5c2.26,3.67,4.51,7.33,6.74,11c0.25,0.4,0.47,0.81,0.87,1.51l-2.7-0.77c-1.41-0.44-2.91-0.44-4.32,0c-8.24,2.49-16.48,4.98-24.71,7.46c-2.39,0.67-4.04,2.87-4,5.35c0,2.26,0.09,4.53,0,6.79c-0.01,2.61,1.71,4.91,4.22,5.64c8.29,2.47,16.57,5,24.85,7.45c1.16,0.35,2.39,0.35,3.55,0c8.41-2.53,16.82-5.07,25.22-7.62c2.2-0.63,3.78-2.54,4-4.82c0.05-0.28,0.1-0.57,0.17-0.94c1.66,0.53,3.22,1,4.78,1.52c2.07,0.72,4.37,0.17,5.89-1.41c1-0.91,1.94-1.82,2.84-2.8c0.45-0.64,1.3-0.86,2-0.52c1.16,0.44,2.39,0.69,3.56,1.08c1.73,0.57,3.61,0.57,5.34,0c13-4,26-7.83,39-11.74c3.57-1.08,7.14-2.13,10.67-3.32c2.13-0.6,3.62-2.52,3.69-4.73c0.06-0.79,0.11-1.59,0.11-2.39C553.99,31.22,553.97,22.1,553.95,13z M451.63,25.95c0.29-0.22,0.93-0.08,1.36,0c3.83,1.15,7.64,2.34,11.45,3.52l7.3,2.27c-0.05,0.15-0.12,0.29-0.21,0.42c-1.89,2.13-1.9,2.13-4.6,1.29l-16-5l-1.46-0.48C450.14,27.25,450.86,26.57,451.63,25.95zM442.04,71.61l-22.17-6.62v-3.75l22.17,6.67V71.61z M446.11,62.45c-0.62,0.23-1.3,0.27-1.94,0.1c-5.93-1.81-11.88-3.59-17.81-5.39c-0.32-0.1-0.63-0.24-1.17-0.46c0.6-0.23,0.95-0.38,1.31-0.49c5.77-1.72,11.55-3.43,17.32-5.18c0.8-0.26,1.65-0.26,2.45,0c5.72,1.75,11.46,3.45,17.19,5.17c0.37,0.11,0.72,0.26,1.09,0.39c-0.01,0.09-0.01,0.19,0,0.28c-2.37,0.72-4.73,1.46-7.1,2.17L446.11,62.45z M447.99,71.61V67.9l22-6.63c0.07,0.28,0.12,0.56,0.15,0.85c0,0.92,0,1.85,0,2.86L447.99,71.61z M476.14,58.48c-0.05-0.23-0.12-0.43-0.15-0.64c-0.12-2.37-1.72-4.41-4-5.1c-3.46-1.1-6.91-2.28-10.43-3.15c-2.17-0.45-4.01-1.86-5-3.84c-1.92-3.45-4.11-6.74-6.18-10.1l-0.83-1.41c0.54,0.12,0.84,0.15,1.13,0.24l16.64,5.15c0.61,0.13,1.13,0.52,1.43,1.06c3.12,5.87,6.27,11.73,9.4,17.6c0.14,0.3,0.27,0.62,0.37,0.94L476.14,58.48z M484.74,58.38l-10.92-20.34l2.63-2.56l11,20.41L484.74,58.38z M494.87,56.3l-1.23-0.34c-0.63-1.42-1.1-2.71-1.74-3.9c-3.86-7.18-7.75-14.35-11.59-21.58c-0.8-1.61-2.23-2.81-3.95-3.32c-1.23-0.37-2.45-0.78-3.74-1.2v-2l22.25,6.63L494.87,56.3z M498.78,25.12c-0.59,0.16-1.21,0.16-1.8,0c-6-1.75-12-3.56-18-5.35c-0.25-0.08-0.5-0.17-0.74-0.28v-0.24c0.4-0.14,0.8-0.3,1.2-0.43c14-4.22,28-8.45,42-12.68c1.01-0.32,2.09-0.32,3.1,0c5.51,1.68,11.05,3.3,16.57,4.94c0.54,0.13,1.05,0.37,1.49,0.7c-0.47,0.17-0.94,0.36-1.42,0.51l-33.12,10c-3.02,1-6.17,1.96-9.28,2.86L498.78,25.12z M548.12,42.12c-15.72,4.74-31.44,9.49-47.31,14.23V30.58l47.31-14.25V42.12z"/>
</svg>
